<?xml version="1.0" encoding="utf-8"?>
<!DOCTYPE svg PUBLIC "-//W3C//DTD SVG 1.1//EN" "http://www.w3.org/Graphics/SVG/1.1/DTD/svg11.dtd">
<svg version="1.1" id="图形" xmlns="http://www.w3.org/2000/svg" xmlns:xlink="http://www.w3.org/1999/xlink" x="0px" y="0px" width="1024px" height="1024px" viewBox="0 0 1024 1024" enable-background="new 0 0 1024 1024" xml:space="preserve">
  <path fill="#272636" d="M777.44 35.936c1.056 0.448 1.952 0.768 2.688 1.024 0.736 0.224 1.632 0.32 2.688 0.32 1.472 0 3.264-0.448 5.408-1.344M235.488 35.936c-3.808-2.016-7.36-6.176-10.624-12.448-3.296-6.272-6.144-14.016-8.576-23.232-2.432-9.216-4.352-19.68-5.728-31.488-1.376-11.776-2.048-24.288-2.048-37.536 0-8.544 0.32-16.736 0.96-24.576 0.64-7.84 1.472-15.36 2.528-22.56L269.12-115.904c2.528 14.144 3.808 29.856 3.808 47.136 0 13.248-0.672 25.76-2.048 37.536-1.376 11.776-3.264 22.272-5.728 31.488-2.432 9.216-5.28 16.96-8.576 23.232-3.296 6.272-6.816 10.432-10.624 12.448M777.44 35.936c-3.808-2.016-7.296-6.176-10.464-12.448-3.168-6.272-5.984-14.016-8.416-23.232-2.432-9.216-4.288-19.68-5.568-31.488-1.28-11.776-1.888-24.288-1.888-37.536 0-8.544 0.256-16.736 0.8-24.576 0.544-7.84 1.312-15.36 2.368-22.56l57.152 0c1.056 7.168 1.888 14.688 2.528 22.56 0.64 7.872 0.96 16.064 0.96 24.576 0 13.248-0.672 25.76-2.08 37.536-1.376 11.776-3.264 22.272-5.728 31.488-2.432 9.216-5.248 16.96-8.416 23.232-3.168 6.272-6.656 10.432-10.464 12.448M245.952 35.936c12.896-0.672 25.088-3.872 36.512-9.6 11.424-5.728 21.312-13.312 29.696-22.72 8.352-9.44 14.976-20.32 19.84-32.672 4.864-12.352 7.296-25.472 7.296-39.392 0-17.28-3.712-33.12-11.104-47.456l367.008 0c-7.2 14.592-10.784 30.4-10.784 47.456 0 13.92 2.432 27.04 7.296 39.392s11.488 23.232 19.84 32.672 18.208 16.992 29.536 22.72c11.328 5.728 23.456 8.928 36.352 9.6L245.952 35.936zM539.968-59.68l-10.176-15.488c-2.336-3.136-4.544-6.272-6.656-9.44-2.112-3.136-3.904-5.824-5.408-8.096-0.416-0.448-0.992-0.96-1.76-1.504-0.736-0.576-2.176-0.832-4.288-0.832-2.112 0-3.488 0.288-4.128 0.832-0.64 0.576-1.152 1.056-1.6 1.504-1.696 2.24-3.584 4.928-5.728 8.096l-6.336 9.44-10.496 15.488c-2.528 3.584-2.816 6.72-0.8 9.44 2.016 2.688 5.664 4.032 10.944 4.032l36.512 0c5.504 0 9.216-1.344 11.104-4.032C543.136-52.928 542.72-56.064 539.968-59.68zM788.224 35.936c12.928-0.672 25.024-3.872 36.352-9.6 11.328-5.728 21.216-13.312 29.696-22.72 8.48-9.44 15.136-20.32 20-32.672 4.864-12.352 7.296-25.472 7.296-39.392 0-8.544-0.96-16.768-2.848-24.736-1.888-7.968-4.672-15.552-8.256-22.72l87.008 0 0 115.808-0.32 0 0 72.032 0 0.352 0 3.04c-0.224 10.112-0.864 21.216-1.92 33.344-1.056 12.128-3.008 23.904-5.888 35.36-2.848 11.456-6.784 21.952-11.744 31.488-4.96 9.536-11.36 16.672-19.2 21.376-8.896 5.6-17.568 7.744-26.016 6.4-8.48-1.344-16.128-4.096-23.008-8.256-6.88-4.16-12.704-8.768-17.472-13.792-4.768-5.056-8-8.576-9.696-10.592-11.84-14.144-24.064-28.672-36.672-43.616s-26.464-28.544-41.6-40.896c-15.136-12.352-31.872-22.496-50.176-30.464-18.304-7.968-39.008-11.936-62.08-11.936l-22.208 0L512 43.744l-0.32 0L393.92 43.744l-21.92 0c-23.264 0-44.064 4-62.4 11.936-18.304 7.968-34.976 18.112-50.016 30.464-15.04 12.352-28.896 25.984-41.6 40.896-12.704 14.912-24.992 29.472-36.832 43.616-1.056 1.344-2.848 3.424-5.408 6.24-2.528 2.816-5.6 5.824-9.216 9.088-3.616 3.264-7.712 6.336-12.384 9.248s-9.632 5.12-14.912 6.56c-5.28 1.472-10.848 1.92-16.672 1.344-5.824-0.576-11.68-2.624-17.632-6.24-7.84-4.704-14.176-11.84-19.04-21.376-4.864-9.536-8.736-20.032-11.584-31.488-2.848-11.456-4.8-23.232-5.856-35.36-1.056-12.128-1.696-23.232-1.92-33.344-0.224-0.448-0.32-1.44-0.32-3.04l0-0.352 0-72.032 0-115.808 86.688 0c-3.392 7.168-6.016 14.752-7.936 22.72-1.888 7.968-2.848 16.224-2.848 24.736 0 13.92 2.432 27.04 7.296 39.392 4.864 12.352 11.52 23.232 20 32.672 8.448 9.44 18.368 16.992 29.696 22.72 11.328 5.728 23.456 8.928 36.352 9.6M235.488 35.936c1.056 0.448 2.016 0.768 2.848 1.024 0.832 0.224 1.696 0.32 2.528 0.32 1.056 0 1.952-0.096 2.688-0.32 0.736-0.224 1.536-0.544 2.368-1.024M928 236c-17.696 0-32 14.304-32 32L896 619.904C896 637.312 881.344 652 864 652L160 652C142.368 652 128 637.6 128 619.904L128 268c0-17.696-14.336-32-32-32s-32 14.304-32 32L64 619.904C64 672.896 107.072 716 160 716l704 0c52.928 0 96-43.104 96-96.096L960 268C960 250.304 945.696 236 928 236zM512 331.904c-123.52 0-224 100.48-224 224 0 17.664 14.336 32 32 32s32-14.336 32-32c0-88.224 71.776-160 160-160s160 71.776 160 160c0 17.664 14.304 32 32 32s32-14.336 32-32C736 432.384 635.488 331.904 512 331.904z" transform="translate(0, 812) scale(1, -1)"/>
</svg>
